<svg xmlns="http://www.w3.org/2000/svg" viewBox="0 0 192 192">
  <defs>
    <linearGradient id="grad" x1="0%" y1="0%" x2="100%" y2="100%">
      <stop offset="0%" style="stop-color:#6366f1"/>
      <stop offset="100%" style="stop-color:#8b5cf6"/>
    </linearGradient>
  </defs>
  <rect width="192" height="192" rx="32" fill="url(#grad)"/>
  <!-- Book icon -->
  <g transform="translate(48, 48)">
    <path d="M8 4a2 2 0 00-2 2v80a2 2 0 002 2h80a2 2 0 002-2V6a2 2 0 00-2-2H8z" fill="rgba(255,255,255,0.2)"/>
    <path d="M16 12h32v8H16z M16 28h64v4H16z M16 40h64v4H16z M16 52h64v4H16z M16 64h48v4H16z" fill="white"/>
  </g>
</svg>
